<?xml version="1.0" encoding="UTF-8"?>
<svg width="995px" height="698px" viewBox="0 0 995 698" version="1.1" xmlns="http://www.w3.org/2000/svg" xmlns:xlink="http://www.w3.org/1999/xlink">
    <title>mission-about</title>
    <g id="Page-1" stroke="none" stroke-width="1" fill="none" fill-rule="evenodd">
        <g id="mission-about">
            <path d="M812.68858,437.54785 L171.85008,437.54785 C162.741645,437.537567 155.360363,430.156285 155.35008,421.04785 L155.35008,25.89404 C155.357503,19.2210687 160.765029,13.8133369 167.438,13.80566 L816.89146,13.80566 C823.679869,13.8133809 829.180997,19.3146211 829.18858,26.10303 L829.18858,421.04785 C829.178291,430.156283 821.797013,437.537561 812.68858,437.54785 Z" id="Path" fill="#F2F2F2" fill-rule="nonzero"></path>
            <path d="M789.31129,414.18101 L192.06654,414.18101 C183.31154,414.18101 176.18898,407.5111 176.18898,399.31286 L176.18898,55.20786 C176.18898,49.12779 181.46693,44.18101 187.9546,44.18101 L793.22828,44.18101 C799.8235,44.18101 805.18898,49.20933 805.18898,55.38951 L805.18898,399.31286 C805.18898,407.5111 798.06617,414.18101 789.31129,414.18101 Z" id="Path" fill="#FFFFFF" fill-rule="nonzero"></path>
            <path d="M828.95884,24.9502 L155.11851,24.9502 L155.11851,16.54981 C155.131718,7.41107776 162.539831,0.00755011991 171.67857,-1.42108547e-14 L812.39878,-1.42108547e-14 C821.537537,0.00750612281 828.945676,7.41105949 828.95884,16.54981 L828.95884,24.9502 Z" id="Path" fill="#CCCCCC" fill-rule="nonzero"></path>
            <circle id="Oval" fill="#FFFFFF" fill-rule="nonzero" cx="185.21387" cy="12.5" r="4.28342"></circle>
            <circle id="Oval" fill="#FFFFFF" fill-rule="nonzero" cx="201.47268" cy="12.5" r="4.28342"></circle>
            <circle id="Oval" fill="#FFFFFF" fill-rule="nonzero" cx="217.73148" cy="12.5" r="4.28342"></circle>
            <path d="M723.57277,356.46911 L260.73426,356.46911 C251.073823,356.458143 243.245227,348.629547 243.23426,338.96911 L243.23426,115.8153 C243.242355,108.59033 249.097191,102.73528 256.32216,102.72692 L727.77565,102.72692 C735.116045,102.735352 741.064471,108.683885 741.07277,116.02428 L741.07277,338.96911 C741.061847,348.629565 733.233225,356.458187 723.57277,356.46911 L723.57277,356.46911 Z M256.32216,104.72692 C250.201201,104.73393 245.241005,109.69434 245.23426,115.8153 L245.23426,338.96911 C245.243877,347.525537 252.177833,354.459493 260.73426,354.46911 L723.57277,354.46911 C732.129179,354.459449 739.063109,347.525519 739.07277,338.96911 L739.07277,116.02428 C739.065804,109.787902 734.012028,104.734018 727.77565,104.72692 L256.32216,104.72692 Z" id="Shape" fill="#CCCCCC" fill-rule="nonzero"></path>
            <path d="M276.73429,338.96911 L707.57279,338.96911 C716.409346,338.96911 723.57279,331.805666 723.57279,322.96911 L723.57279,136.42126 C723.57279,127.584704 716.409346,120.42126 707.57279,120.42126 L276.73429,120.42126 C267.897734,120.42126 260.73429,127.584704 260.73429,136.42126 L260.73429,322.96911 C260.73429,331.805666 267.897734,338.96911 276.73429,338.96911 Z" id="Path" fill="#F2F2F2" fill-rule="nonzero"></path>
            <circle id="Oval" fill="#CCCCCC" fill-rule="nonzero" cx="325.65354" cy="165.69519" r="9"></circle>
            <circle id="Oval" fill="#CCCCCC" fill-rule="nonzero" cx="325.65354" cy="199.69519" r="9"></circle>
            <circle id="Oval" fill="#CCCCCC" fill-rule="nonzero" cx="325.65354" cy="233.69519" r="9"></circle>
            <circle id="Oval" fill="#CCCCCC" fill-rule="nonzero" cx="325.65354" cy="267.69519" r="9"></circle>
            <path d="M666.65354,166.69519 L370.65354,166.69519 C370.101255,166.69519 369.65354,166.247475 369.65354,165.69519 C369.65354,165.142905 370.101255,164.69519 370.65354,164.69519 L666.65354,164.69519 C667.205825,164.69519 667.65354,165.142905 667.65354,165.69519 C667.65354,166.247475 667.205825,166.69519 666.65354,166.69519 Z" id="Path" fill="#CCCCCC" fill-rule="nonzero"></path>
            <path d="M666.65354,200.69519 L370.65354,200.69519 C370.101255,200.69519 369.65354,200.247475 369.65354,199.69519 C369.65354,199.142905 370.101255,198.69519 370.65354,198.69519 L666.65354,198.69519 C667.205825,198.69519 667.65354,199.142905 667.65354,199.69519 C667.65354,200.247475 667.205825,200.69519 666.65354,200.69519 Z" id="Path" fill="#CCCCCC" fill-rule="nonzero"></path>
            <path d="M666.65354,234.69519 L370.65354,234.69519 C370.101255,234.69519 369.65354,234.247475 369.65354,233.69519 C369.65354,233.142905 370.101255,232.69519 370.65354,232.69519 L666.65354,232.69519 C667.205825,232.69519 667.65354,233.142905 667.65354,233.69519 C667.65354,234.247475 667.205825,234.69519 666.65354,234.69519 Z" id="Path" fill="#CCCCCC" fill-rule="nonzero"></path>
            <path d="M666.65354,268.69519 L370.65354,268.69519 C370.101255,268.69519 369.65354,268.247475 369.65354,267.69519 C369.65354,267.142905 370.101255,266.69519 370.65354,266.69519 L666.65354,266.69519 C667.205825,266.69519 667.65354,267.142905 667.65354,267.69519 C667.65354,268.247475 667.205825,268.69519 666.65354,268.69519 Z" id="Path" fill="#CCCCCC" fill-rule="nonzero"></path>
            <path d="M426.65354,302.69519 L397.65354,302.69519 C394.893446,302.691983 392.656747,300.455284 392.65354,297.69519 L392.65354,270.69519 C392.656742,267.935094 394.893444,265.698392 397.65354,265.69519 L426.65354,265.69519 C429.413639,265.698386 431.650344,267.935091 431.65354,270.69519 L431.65354,297.69519 C431.650338,300.455286 429.413636,302.691988 426.65354,302.69519 L426.65354,302.69519 Z" id="Path" fill="#FFFFFF" fill-rule="nonzero"></path>
            <path d="M491.65354,302.69519 L462.65354,302.69519 C459.893425,302.692032 457.656698,300.455305 457.65354,297.69519 L457.65354,236.69519 C457.656698,233.935075 459.893425,231.698348 462.65354,231.69519 L491.65354,231.69519 C494.413655,231.698348 496.650382,233.935075 496.65354,236.69519 L496.65354,297.69519 C496.650382,300.455305 494.413655,302.692032 491.65354,302.69519 Z" id="Path" fill="#FFFFFF" fill-rule="nonzero"></path>
            <path d="M557.65354,302.69519 L528.65354,302.69519 C525.893425,302.692032 523.656698,300.455305 523.65354,297.69519 L523.65354,202.69519 C523.656698,199.935075 525.893425,197.698348 528.65354,197.69519 L557.65354,197.69519 C560.413655,197.698348 562.650382,199.935075 562.65354,202.69519 L562.65354,297.69519 C562.650382,300.455305 560.413655,302.692032 557.65354,302.69519 Z" id="Path" fill="#FFFFFF" fill-rule="nonzero"></path>
            <path d="M625.65354,302.69519 L596.65354,302.69519 C593.893425,302.692032 591.656698,300.455305 591.65354,297.69519 L591.65354,169.69519 C591.656698,166.935075 593.893425,164.698348 596.65354,164.69519 L625.65354,164.69519 C628.413655,164.698348 630.650382,166.935075 630.65354,169.69519 L630.65354,297.69519 C630.650382,300.455305 628.413655,302.692032 625.65354,302.69519 Z" id="Path" fill="#FFFFFF" fill-rule="nonzero"></path>
            <path d="M666.65354,302.69519 L370.65354,302.69519 C370.101255,302.69519 369.65354,302.247475 369.65354,301.69519 C369.65354,301.142905 370.101255,300.69519 370.65354,300.69519 L666.65354,300.69519 C667.205825,300.69519 667.65354,301.142905 667.65354,301.69519 C667.65354,302.247475 667.205825,302.69519 666.65354,302.69519 Z" id="Path" fill="#3F3D56" fill-rule="nonzero"></path>
            <path d="M796.70129,489.2428 C798.34168,486.759779 800.99764,485.130879 803.954506,484.794404 C806.911372,484.45793 809.865407,485.448444 812.02174,487.49942 L843.77692,471.11077 L841.80206,489.57516 L811.94957,502.30731 C808.181218,505.777636 802.412819,505.880987 798.522571,502.547878 C794.632324,499.214769 793.84988,493.498749 796.70129,489.2428 L796.70129,489.2428 Z" id="Path" fill="#FFB8B8" fill-rule="nonzero"></path>
            <path d="M824.02427,496.12911 C823.303393,495.56395 822.7719,494.792492 822.50064,493.91757 L819.97491,485.75822 C819.41906,483.947347 820.052774,481.982049 821.56177,480.83699 L847.29946,461.39662 L875.17452,409.68433 C878.350785,405.593287 883.468385,403.507617 888.599436,404.213025 C893.730487,404.918433 898.095397,408.307743 900.04983,413.104146 C902.004264,417.900549 901.251272,423.375296 898.07452,427.46596 L882.216,460.93641 C877.404333,471.095584 869.066337,479.161177 858.753,483.63287 L828.59021,496.71557 C827.417052,497.223663 826.083265,497.209376 824.92126,496.67627 C824.601726,496.529907 824.300635,496.346243 824.02427,496.12911 Z" id="Path" fill="#3F3D56" fill-rule="nonzero"></path>
            <circle id="Oval" fill="#FFB8B8" fill-rule="nonzero" cx="898.77529" cy="363.5412" r="24.56103"></circle>
            <polygon id="Path" fill="#FFB8B8" fill-rule="nonzero" points="888.812 685.737 876.553 685.736 870.722 638.448 888.817 638.449"></polygon>
            <path d="M867.79529,682.2327 L891.43916,682.2327 L891.43916,697.11957 L852.90843,697.11957 L852.90843,697.11957 C852.90843,693.171328 854.476859,689.384794 857.268687,686.592964 C860.060515,683.801134 863.847048,682.2327 867.79529,682.2327 L867.79529,682.2327 Z" id="Path" fill="#2F2E41" fill-rule="nonzero"></path>
            <polygon id="Path" fill="#FFB8B8" fill-rule="nonzero" points="928.812 685.739 916.553 685.738 910.722 638.449 928.817 638.451"></polygon>
            <path d="M907.79529,682.23452 L931.43916,682.23452 L931.43916,697.1214 L892.90843,697.1214 L892.90843,697.1214 C892.90843,693.173156 894.476855,689.38662 897.268683,686.594787 C900.060512,683.802955 903.847046,682.23452 907.79529,682.23452 L907.79529,682.23452 Z" id="Path" fill="#2F2E41" fill-rule="nonzero"></path>
            <path d="M929.708,673.73951 L915.34105,673.73951 C913.307724,673.735963 911.528039,672.372167 910.99648,670.40955 L890.31687,593.70841 C890.250012,593.460845 890.006722,593.303977 889.753631,593.345245 C889.50054,593.386513 889.319683,593.61254 889.33493,593.86852 L893.51228,666.6109 C893.587156,667.912241 893.093971,669.182094 892.160382,670.091768 C891.226792,671.001442 889.944571,671.461515 888.64561,671.3529 L872.498,670.00639 C870.365268,669.823809 868.654288,668.167944 868.402,666.04233 L853.69143,513.29751 L859.38268,516.71281 L912.71168,507.6586 L934.169,668.64494 C934.340138,669.930722 933.948213,671.227823 933.093705,672.203702 C932.239198,673.17958 931.005201,673.73951 929.70808,673.73951 L929.708,673.73951 Z" id="Path" fill="#2F2E41" fill-rule="nonzero"></path>
            <path d="M871.52688,529.41943 C865.643253,529.37233 859.879637,527.750117 854.8352,524.72143 C853.244406,523.779121 852.395877,521.956363 852.69893,520.13243 C854.57446,508.64619 864.38281,449.72476 873.30693,417.6031 C876.94156,404.52026 884.97825,397.47375 897.19387,396.65986 C915.06187,395.48786 930.94377,409.46706 932.59747,427.85971 C935.51494,460.30809 923.6642,506.41009 918.43363,524.72528 C918.021958,526.161624 916.923629,527.299619 915.502787,527.76197 C914.081946,528.224321 912.524241,527.950616 911.34612,527.0316 L900.68463,518.73814 C899.33081,517.703675 897.431532,517.782853 896.16851,518.92641 C887.18227,526.94163 878.646,529.41943 871.52688,529.41943 Z" id="Path" fill="#3F3D56" fill-rule="nonzero"></path>
            <polygon id="Path" fill="#000000" fill-rule="nonzero" opacity="0.2" points="906.787 443.738 915.786 481.739 902.784 513.738 911.786 482.739"></polygon>
            <path d="M912.79012,383.73869 C914.974877,383.779324 917.146028,383.386607 919.17812,382.58323 C920.07225,382.2387 921.00041,381.95553 921.89287,381.61077 C929.77471,378.56604 934.96706,370.17231 935.1534,361.72488 C935.33974,353.27745 930.96549,345.07824 924.46978,339.67459 C917.97407,334.27094 909.56029,331.49645 901.13523,330.85459 C892.06004,330.16317 881.84094,332.46414 876.76946,340.02173 C875.41952,342.03344 874.47537,344.47421 875.2751,346.90327 C875.514644,347.636281 875.942483,348.293535 876.51581,348.80927 C878.78042,350.82427 881.03828,349.30936 883.34695,349.17561 C886.52021,348.99178 889.37022,351.56046 890.39446,354.56948 C891.4187,357.5785 890.96763,360.89112 890.14037,363.96015 C889.510178,365.806886 889.112859,367.725034 888.95762,369.67015 C888.821796,371.653214 889.721503,373.565421 891.33595,374.72497 C893.31878,375.92364 895.92285,375.23007 897.90695,374.03351 C899.89105,372.83695 901.60549,371.17321 903.74866,370.29273 C905.89183,369.41225 908.77113,369.60773 910.01844,371.5603 C910.414831,372.270786 910.683105,373.045482 910.81099,373.84895 C911.92904,378.94385 911.67204,378.64379 912.79008,383.73869 L912.79012,383.73869 Z" id="Path" fill="#2F2E41" fill-rule="nonzero"></path>
            <path d="M874.72128,651.43172 L720.92537,597.87091 C715.430561,595.950328 712.527299,589.944335 714.43546,584.4452 L754.40114,469.68673 C755.80811,465.661136 760.20813,463.534079 764.2369,464.93193 L923.232,520.3034 C927.327178,521.734813 929.490897,526.210995 928.06875,530.3094 L888.147,644.94181 C886.226418,650.436625 880.220418,653.339888 874.72128,651.43172 Z" id="Path" fill="#E6E6E6" fill-rule="nonzero"></path>
            <path d="M734.04932,591.27591 L868.53312,638.1111 C873.866012,639.96833 879.694758,637.150751 881.55199,631.81786 L913.82399,539.1512 C915.681213,533.818308 912.86363,527.989568 907.53074,526.13234 L773.04694,479.29714 C767.714046,477.439917 761.885303,480.257499 760.02807,485.59039 L727.75607,578.25705 C726.864197,580.817995 727.026186,583.628345 728.206399,586.069856 C729.386613,588.511366 731.488374,590.38404 734.04932,591.27591 L734.04932,591.27591 Z" id="Path" fill="#FFFFFF" fill-rule="nonzero"></path>
            <path d="M767.82,526.16936 L761.15973,523.84986 C760.407975,523.587117 760.010776,522.765426 760.27185,522.01309 L762.59135,515.35282 C762.854089,514.601061 763.675781,514.203857 764.42812,514.46493 L771.08839,516.78443 C771.840145,517.047173 772.237344,517.868864 771.97627,518.6212 L769.65677,525.28147 C769.394036,526.033233 768.572339,526.430439 767.82,526.16936 Z" id="Path" fill="#FFFFFF" fill-rule="nonzero"></path>
            <path d="M761.81039,543.42551 L755.15012,541.10601 C754.398361,540.843271 754.001157,540.021579 754.26223,539.26924 L756.58173,532.60897 C756.844469,531.857211 757.666161,531.460007 758.4185,531.72108 L765.07878,534.04058 C765.830535,534.303323 766.227734,535.125014 765.96666,535.87735 L763.64716,542.53762 C763.384417,543.289375 762.562729,543.686577 761.81039,543.42551 Z" id="Path" fill="#3F3D56" fill-rule="nonzero"></path>
            <path d="M755.80078,560.68168 L749.14051,558.36218 C748.388751,558.099441 747.991547,557.277749 748.25262,556.52541 L750.57212,549.86513 C750.834863,549.113375 751.656554,548.716176 752.40889,548.97725 L759.06916,551.29675 C759.820919,551.559489 760.218123,552.381181 759.95705,553.13352 L757.63755,559.79379 C757.374807,560.545545 756.553119,560.942747 755.80078,560.68168 Z" id="Path" fill="#CCCCCC" fill-rule="nonzero"></path>
            <path d="M812.57426,538.0214 L780.48386,526.84563 C779.995851,526.677112 779.635105,526.260644 779.537928,525.753586 C779.440752,525.246527 779.621961,524.726195 780.013089,524.389192 C780.404216,524.052189 780.945622,523.949903 781.43274,524.12098 L813.52314,535.29675 C814.011149,535.465268 814.371895,535.881736 814.469072,536.388794 C814.566248,536.895853 814.385039,537.416185 813.993911,537.753188 C813.602784,538.090191 813.061378,538.192477 812.57426,538.0214 L812.57426,538.0214 Z" id="Path" fill="#CCCCCC" fill-rule="nonzero"></path>
            <path d="M806.56464,555.27756 L774.47424,544.10179 C773.721846,543.839761 773.324326,543.017409 773.586355,542.265015 C773.848384,541.512621 774.670736,541.115101 775.42313,541.37713 L807.51353,552.55291 C808.001303,552.721609 808.361787,553.138045 808.45885,553.644958 C808.555913,554.151871 808.374766,554.672018 807.983816,555.008974 C807.592866,555.345931 807.051684,555.448352 806.56464,555.27756 L806.56464,555.27756 Z" id="Path" fill="#CCCCCC" fill-rule="nonzero"></path>
            <path d="M800.555,572.53372 L768.4646,561.35795 C767.712206,561.095921 767.314687,560.273569 767.576715,559.521175 C767.838744,558.768781 768.661096,558.371261 769.41349,558.63329 L801.50389,569.80906 C802.256284,570.071089 802.653804,570.893441 802.391775,571.645835 C802.129746,572.398229 801.307394,572.795749 800.555,572.53372 L800.555,572.53372 Z" id="Path" fill="#CCCCCC" fill-rule="nonzero"></path>
            <path d="M885.95374,581.88312 C886.18741,581.32234 886.40768,580.75243 886.61013,580.17112 C892.102592,564.399857 883.77,547.162199 867.99875,541.6697 L857.451,571.95679 L885.95374,581.88312 Z" id="Path" fill="#FFFFFF" fill-rule="nonzero"></path>
            <path d="M854.38355,573.79941 L864.9313,543.51233 C849.385069,538.097511 832.363608,546.113678 826.635867,561.547361 C820.908127,576.981043 828.578832,594.160954 843.893668,600.199279 C859.208504,606.237604 876.539854,598.91549 882.8863,583.72575 L854.38355,573.79941 Z" id="Path" fill="#3F3D56" fill-rule="nonzero"></path>
            <path d="M892.145,530.35282 C891.903433,527.386686 892.988091,524.465897 895.107112,522.376386 C897.226133,520.286875 900.161845,519.243282 903.1243,519.52642 L917.99762,487.03391 L927.83844,502.78167 L912.20577,531.22281 C911.382185,536.279026 906.906999,539.920149 901.788958,539.698188 C896.670917,539.476228 892.527758,535.461343 892.145,530.35281 L892.145,530.35282 Z" id="Path" fill="#FFB8B8" fill-rule="nonzero"></path>
            <path d="M917.8943,518.909822 C916.978294,518.909822 916.083998,518.630945 915.33062,518.1099 L908.30789,513.24825 C906.752981,512.166361 906.038802,510.228854 906.51954,508.39661 L914.77462,477.21632 L904.795555,419.32332 C904.764558,414.140187 907.503005,409.334737 911.97818,406.719656 C916.453355,404.104574 921.984243,404.077813 926.484514,406.649467 C930.984785,409.221122 933.769605,413.999847 933.7885,419.18304 L941.96532,455.30646 C944.448623,466.269779 942.865168,477.761902 937.5095,487.64512 L921.849,516.55351 C921.239437,517.677295 920.181106,518.489164 918.93777,518.78678 C918.596018,518.868814 918.245759,518.909822 917.8943,518.909822 L917.8943,518.909822 Z" id="Path" fill="#3F3D56" fill-rule="nonzero"></path>
            <path d="M994,697.68102 L804,697.68102 C803.447715,697.68102 803,697.233305 803,696.68102 C803,696.128735 803.447715,695.68102 804,695.68102 L994,695.68102 C994.552285,695.68102 995,696.128735 995,696.68102 C995,697.233305 994.552285,697.68102 994,697.68102 Z" id="Path" fill="#CCCCCC" fill-rule="nonzero"></path>
            <polygon id="Path" fill="#A0616A" fill-rule="nonzero" points="490.541 685.239 502.801 685.238 508.633 637.951 490.539 637.951"></polygon>
            <path d="M487.414,681.23644 L511.55779,681.23544 L511.55879,681.23544 C515.63953,681.23544 519.55317,682.856326 522.438712,685.741821 C525.324254,688.627317 526.94527,692.54093 526.94527,696.62167 L526.94527,697.12167 L487.41475,697.12314 L487.414,681.23644 Z" id="Path" fill="#2F2E41" fill-rule="nonzero"></path>
            <polygon id="Path" fill="#A0616A" fill-rule="nonzero" points="441.541 685.239 453.801 685.238 459.633 637.951 441.539 637.951"></polygon>
            <path d="M438.414,681.23644 L462.55779,681.23544 L462.55879,681.23544 C466.63953,681.23544 470.55317,682.856326 473.438712,685.741821 C476.324254,688.627317 477.94527,692.54093 477.94527,696.62167 L477.94527,697.12167 L438.41475,697.12314 L438.414,681.23644 Z" id="Path" fill="#2F2E41" fill-rule="nonzero"></path>
            <circle id="Oval" fill="#A0616A" fill-rule="nonzero" cx="492.98819" cy="333.297" r="24.56103"></circle>
            <path d="M509.50462,675.032903 L486.75389,675.032903 C485.550985,675.032903 484.398193,674.551102 483.552809,673.695353 C482.707425,672.839604 482.239824,671.681027 482.25437,670.47821 L483.57637,562.44696 C483.586382,561.650202 482.971711,560.984654 482.176671,560.931406 C481.381632,560.878157 480.683698,561.455793 480.58737,562.24677 L467.34666,671.07685 C467.06996,673.334177 465.153882,675.032903 462.87966,675.032903 L439.91038,675.032903 C438.655945,675.032903 437.458409,674.509463 436.606642,673.58854 C435.754875,672.667617 435.32621,671.432934 435.42405,670.18232 L450.59153,476.10712 L451.00389,476.0622 L523.63279,468.21845 L513.99973,670.74677 C513.888135,673.147439 511.90788,675.035631 509.50462,675.032903 Z" id="Path" fill="#2F2E41" fill-rule="nonzero"></path>
            <path d="M451.47556,488.02118 C449.050004,488.015647 447.066039,486.087202 446.99168,483.66278 C446.59519,471.3913 445.91575,428.93036 453.81368,397.75751 C458.239205,380.272984 473.589532,367.747113 491.6064,366.91864 L491.6064,366.91864 C509.320015,365.951293 525.662224,376.436875 532.165,392.94208 C545.44039,426.64521 557.98287,468.18817 542.34591,474.7038 C521.85103,483.24286 467.82247,487.0495 451.75167,488.01239 C451.659157,488.01825 451.56712,488.02118 451.47556,488.02118 Z" id="Path" fill="#3F3D56" fill-rule="nonzero"></path>
            <path d="M545.34686,308.47296 C545.732796,308.869517 546.149404,309.23502 546.59281,309.56607 L544.01457,359.09225 L533.29035,364.58276 L539.46113,381.85051 L559.39085,373.97565 C562.698073,372.668862 564.745722,369.335881 564.41665,365.7951 L559.19549,309.61564 C562.693666,307.005648 564.211849,302.503365 563.008461,298.307993 C561.805073,294.11262 558.131225,291.099604 553.781458,290.740692 C549.43169,290.38178 545.313667,292.751867 543.438892,296.693252 C541.564117,300.634636 542.323799,305.324872 545.34686,308.47295 L545.34686,308.47296 Z" id="Path" fill="#A0616A" fill-rule="nonzero"></path>
            <path d="M544.21807,360.9358 L551.76223,382.3747 C552.196569,383.609035 552.072122,384.971296 551.421317,386.1065 C550.770512,387.241703 549.657812,388.037406 548.37317,388.28626 L526.12775,392.59409 C519.616502,394.844591 512.512034,391.401392 510.24429,384.89613 C507.976545,378.390868 511.400909,371.277302 517.90014,368.99233 L537.87381,358.44933 C539.031201,357.838854 540.396996,357.762396 541.615291,358.23988 C542.833586,358.717363 543.783708,359.701493 544.21807,360.93582 L544.21807,360.9358 Z" id="Path" fill="#3F3D56" fill-rule="nonzero"></path>
            <path d="M438.96023,308.47296 C438.57429,308.869512 438.157682,309.235015 437.71428,309.56607 L440.29252,359.09225 L451.01673,364.58276 L444.846,381.85051 L424.91629,373.97565 C421.609067,372.668862 419.561418,369.335881 419.89049,365.7951 L425.11165,309.61564 C421.613474,307.005648 420.095291,302.503365 421.298679,298.307993 C422.502067,294.11262 426.175915,291.099604 430.525682,290.740692 C434.87545,290.38178 438.993473,292.751867 440.868248,296.693252 C442.743023,300.634636 441.983341,305.324872 438.96028,308.47295 L438.96023,308.47296 Z" id="Path" fill="#A0616A" fill-rule="nonzero"></path>
            <path d="M442.69208,358.23977 C443.910202,357.761754 445.276155,357.838259 446.43328,358.44931 L466.40695,368.99231 C472.906181,371.277282 476.330545,378.390848 474.0628,384.89611 C471.795056,391.401372 464.690588,394.844571 458.17934,392.59407 L435.93391,388.28624 C434.649268,388.037386 433.536568,387.241683 432.885763,386.10648 C432.234958,384.971276 432.110511,383.609015 432.54485,382.37468 L440.08902,360.93578 C440.522846,359.70101 441.473284,358.716633 442.69208,358.23977 L442.69208,358.23977 Z" id="Path" fill="#3F3D56" fill-rule="nonzero"></path>
            <path d="M502.52743,337.48357 C502.263817,331.081565 505.81143,325.129628 511.56801,322.31592 C519.03389,318.46185 523.72401,310.24077 521.66883,302.73383 C519.03819,293.12494 505.96022,286.8931 495.36367,290.19904 C492.495853,291.21717 489.73008,292.502596 487.10284,294.03836 L480.17974,297.74936 C477.222333,299.229894 474.370863,300.913194 471.64574,302.78721 C463.332082,308.913613 459.013133,319.080326 460.37546,329.31721 C461.73882,339.0859 468.13615,348.04465 476.89311,354.17821 C480.242045,356.681073 484.110043,358.400355 488.21191,359.20929 C492.40942,359.90135 497.08224,359.11484 500.1513,356.5045 C504.94756,352.42513 504.45206,345.59378 502.90082,339.88815 C502.695806,339.10122 502.570709,338.295614 502.52743,337.48357 L502.52743,337.48357 Z" id="Path" fill="#2F2E41" fill-rule="nonzero"></path>
            <path d="M586,697.68102 L396,697.68102 C395.447715,697.68102 395,697.233305 395,696.68102 C395,696.128735 395.447715,695.68102 396,695.68102 L586,695.68102 C586.552285,695.68102 587,696.128735 587,696.68102 C587,697.233305 586.552285,697.68102 586,697.68102 Z" id="Path" fill="#CCCCCC" fill-rule="nonzero"></path>
            <path d="M275.9097,515.25351 L119.13255,579.57082 C113.526426,581.863319 107.122526,579.185262 104.81737,573.58433 L56.82547,456.60133 C55.145878,452.49424 57.107761,447.802621 61.21104,446.11374 L223.28814,379.62212 C227.466331,377.913576 232.239067,379.909549 233.95702,384.08388 L281.89618,500.93831 C284.188688,506.544437 281.510635,512.948345 275.9097,515.25351 L275.9097,515.25351 Z" id="Path" fill="#E6E6E6" fill-rule="nonzero"></path>
            <path d="M124.81143,565.38183 L261.90212,509.14083 C267.338384,506.910614 269.937405,500.695709 267.7072,495.25944 L228.95407,400.79651 C227.883085,398.185924 225.818913,396.107709 223.215649,395.019047 C220.612386,393.930385 217.683276,393.920455 215.07269,394.99144 L77.982,451.23243 C75.3714126,452.303413 73.2931953,454.367584 72.2045331,456.970849 C71.115871,459.574113 71.1059419,462.503225 72.17693,465.11381 L110.93005,559.57675 C112.001033,562.187337 114.065204,564.265555 116.668468,565.354219 C119.271732,566.442883 122.200843,566.452815 124.81143,565.38183 Z" id="Path" fill="#FFFFFF" fill-rule="nonzero"></path>
            <rect id="Rectangle" fill="#E6E6E6" fill-rule="nonzero" transform="translate(227.257686, 427.139356) rotate(-22.305770) translate(-227.257686, -427.139356) " x="226.168421" y="426.957811" width="2.17853" height="1"></rect>
            <path d="M222.24712,429.39116 L218.17541,431.06157 L218.0376,430.72565 L222.10931,429.05524 L222.24712,429.39116 Z M214.10361,432.73201 L210.0319,434.40242 L209.89409,434.0665 L213.9658,432.39609 L214.10361,432.73201 Z M205.9601,436.07287 L201.88839,437.74328 L201.75058,437.40736 L205.82229,435.73695 L205.9601,436.07287 Z M197.81659,439.41372 L193.74488,441.08413 L193.60707,440.74821 L197.67878,439.0778 L197.81659,439.41372 Z M189.67308,442.75458 L185.60137,444.42499 L185.46356,444.08907 L189.53527,442.41866 L189.67308,442.75458 Z M181.52957,446.09543 L177.45786,447.76584 L177.32005,447.42992 L181.39176,445.75951 L181.52957,446.09543 Z M173.38606,449.43629 L169.31435,451.1067 L169.17654,450.77078 L173.24825,449.10037 L173.38606,449.43629 Z M165.24255,452.77714 L161.17084,454.44755 L161.03303,454.11163 L165.10474,452.44122 L165.24255,452.77714 Z M157.09904,456.118 L153.02732,457.78841 L152.88951,457.45249 L156.96123,455.78208 L157.09904,456.118 Z M148.95553,459.45885 L144.88381,461.12926 L144.746,460.79334 L148.81772,459.12293 L148.95553,459.45885 Z M140.812,462.79971 L136.74028,464.47012 L136.60247,464.1342 L140.67419,462.46379 L140.812,462.79971 Z M132.66849,466.14056 L128.59677,467.81097 L128.45896,467.47505 L132.53068,465.80464 L132.66849,466.14056 Z M124.52498,469.48142 L120.45326,471.15183 L120.31545,470.81591 L124.38717,469.1455 L124.52498,469.48142 Z M116.38147,472.82227 L112.30967,474.49272 L112.17186,474.1568 L116.24366,472.48635 L116.38147,472.82227 Z M108.23796,476.16313 L104.16624,477.83354 L104.02843,477.49762 L108.10015,475.82721 L108.23796,476.16313 Z M100.09445,479.50398 L96.02265,481.17443 L95.88484,480.83851 L99.95664,479.16806 L100.09445,479.50398 Z" id="Shape" fill="#E6E6E6" fill-rule="nonzero"></path>
            <rect id="Rectangle" fill="#E6E6E6" fill-rule="nonzero" transform="translate(90.874286, 483.090309) rotate(-22.305770) translate(-90.874286, -483.090309) " x="89.7850214" y="482.908764" width="2.17853" height="1"></rect>
            <rect id="Rectangle" fill="#E6E6E6" fill-rule="nonzero" transform="translate(173.897854, 485.528512) rotate(-22.305770) translate(-173.897854, -485.528512) " x="172.808589" y="485.346967" width="2.17853" height="1"></rect>
            <path d="M168.94765,487.75551 L164.93638,489.40113 L164.79857,489.06521 L168.80984,487.41959 L168.94765,487.75551 Z M160.92511,491.04674 L156.91384,492.69235 L156.77603,492.35643 L160.7873,490.71082 L160.92511,491.04674 Z M152.90257,494.33797 L148.8913,495.98358 L148.75348,495.64766 L152.76476,494.00205 L152.90257,494.33797 Z M144.88,497.62923 L140.86873,499.27484 L140.73092,498.93892 L144.74219,497.29331 L144.88,497.62923 Z M136.85748,500.92051 L132.84613,502.56615 L132.70832,502.23023 L136.71967,500.58459 L136.85748,500.92051 Z M128.83485,504.21177 L124.82358,505.85738 L124.68577,505.52146 L128.69704,503.87585 L128.83485,504.21177 Z M120.81231,507.503 L116.80104,509.14861 L116.66323,508.81269 L120.6745,507.16708 L120.81231,507.503 Z M112.78977,510.79423 L108.7785,512.43984 L108.64069,512.10392 L112.65196,510.45831 L112.78977,510.79423 Z" id="Shape" fill="#E6E6E6" fill-rule="nonzero"></path>
            <rect id="Rectangle" fill="#E6E6E6" fill-rule="nonzero" transform="translate(103.690643, 514.330845) rotate(-22.305770) translate(-103.690643, -514.330845) " x="102.601378" y="514.1493" width="2.17853" height="1"></rect>
            <rect id="Rectangle" fill="#E6E6E6" fill-rule="nonzero" transform="translate(140.658906, 516.432763) rotate(-22.305770) translate(-140.658906, -516.432763) " x="139.569641" y="516.251218" width="2.17853" height="1"></rect>
            <path d="M135.59306,518.70724 L131.46606,520.40033 L131.32825,520.06441 L135.45525,518.37133 L135.59306,518.70724 Z M127.339,522.09345 L123.212,523.78654 L123.07419,523.45062 L127.20119,521.75753 L127.339,522.09345 Z M119.085,525.47963 L114.958,527.17272 L114.82019,526.8368 L118.94719,525.14371 L119.085,525.47963 Z" id="Shape" fill="#E6E6E6" fill-rule="nonzero"></path>
            <rect id="Rectangle" fill="#E6E6E6" fill-rule="nonzero" transform="translate(109.754293, 529.111301) rotate(-22.305770) translate(-109.754293, -529.111301) " x="108.665028" y="528.929756" width="2.17853" height="1"></rect>
            <rect id="Rectangle" fill="#E6E6E6" fill-rule="nonzero" transform="translate(151.006687, 541.656050) rotate(-22.305770) translate(-151.006687, -541.656050) " x="149.917422" y="541.474505" width="2.17853" height="1"></rect>
            <path d="M145.94085,543.93051 L141.81385,545.6236 L141.67604,545.28768 L145.80304,543.59459 L145.94085,543.93051 Z M137.68679,547.31672 L133.55979,549.00981 L133.42198,548.67389 L137.54898,546.9808 L137.68679,547.31672 Z M129.43279,550.70289 L125.30579,552.39598 L125.16798,552.06006 L129.29498,550.36697 L129.43279,550.70289 Z" id="Shape" fill="#E6E6E6" fill-rule="nonzero"></path>
            <rect id="Rectangle" fill="#E6E6E6" fill-rule="nonzero" transform="translate(120.102074, 554.334588) rotate(-22.305770) translate(-120.102074, -554.334588) " x="119.012809" y="554.153043" width="2.17853" height="1"></rect>
            <path d="M130.63244,550.51189 L246.8075,502.85136 C252.661727,500.441998 255.460892,493.748492 253.06468,487.88887 L229.592,430.673 L229.36506,430.77382 L200.85578,498.94082 L179.71113,490.10093 C178.920235,489.767659 178.018921,489.823909 177.2756,490.25293 C176.725028,490.584273 176.299044,491.08788 176.0636,491.68578 L161.1223,527.40738 L145.66248,520.94503 C144.988766,520.663036 144.2306,520.660346 143.554902,520.937552 C142.879203,521.214759 142.341369,521.749134 142.05981,522.42303 C141.96085,522.6657 132.42848,546.05361 130.63244,550.51189 Z" id="Path" fill="#FFFFFF" fill-rule="nonzero"></path>
            <path d="M130.27482,551.05066 L129.93988,550.91059 L141.89445,522.32418 C142.553415,520.753068 144.359889,520.011971 145.93238,520.66764 L161.08688,527.00511 L175.94306,491.48022 C176.602017,489.909105 178.408489,489.168003 179.98098,489.82367 L200.82024,498.53846 L229.47608,430.01509 L229.81102,430.15516 L201.01512,499.01351 L179.84091,490.15865 C179.174611,489.879975 178.424896,489.877417 177.756711,490.151539 C177.088527,490.425661 176.556613,490.954006 176.278,491.62033 L161.28175,527.48016 L145.79231,521.00262 C144.404804,520.424368 142.811043,521.078203 142.2294,522.46429 L130.27482,551.05066 Z" id="Path" fill="#3F3D56" fill-rule="nonzero"></path>
            <circle id="Oval" fill="#3F3D56" fill-rule="nonzero" cx="141.66667" cy="516.01934" r="2.54162"></circle>
            <circle id="Oval" fill="#3F3D56" fill-rule="nonzero" cx="174.90562" cy="485.11507" r="2.54162"></circle>
            <circle id="Oval" fill="#3F3D56" fill-rule="nonzero" cx="226.6623" cy="426.63608" r="2.54162"></circle>
            <path d="M84.4011,513.13539 C87.0757649,511.804394 89.0235063,509.357048 89.7202256,506.451886 C90.4169449,503.546724 89.7910731,500.482172 88.01102,498.08284 L95.55962,424.27856 L79.24632,424.27856 L73.24726,496.34464 C69.3287175,499.675308 68.5206174,505.410433 71.3662581,509.694199 C74.2118988,513.977965 79.8118178,515.456341 84.4011,513.13539 L84.4011,513.13539 Z" id="Path" fill="#FFB8B8" fill-rule="nonzero"></path>
            <circle id="Oval" fill="#FFB8B8" fill-rule="nonzero" cx="99.37963" cy="360.46758" r="23.08006"></circle>
            <path d="M103.72469,467.259851 C101.825752,467.259851 100.16098,465.990667 99.65663,464.15993 C97.80751,457.44161 92.99658,446.08259 85.35782,430.39672 C81.871628,423.224972 81.6126283,414.906118 84.6459296,407.531393 C87.6792308,400.156667 93.7163405,394.427468 101.23962,391.78403 L101.23962,391.78403 C108.36103,389.269512 116.196854,389.743407 122.963321,393.097837 C129.729788,396.452266 134.851109,402.401786 137.16145,409.59203 C143.08231,428.15482 142.79645,448.03903 142.39864,455.72554 C142.297142,457.628256 140.938578,459.229439 139.07779,459.63944 L104.63159,467.16165 C104.333742,467.227152 104.029655,467.259851 103.72469,467.259851 Z" id="Path" fill="#00D3C1"></path>
            <polygon id="Path" fill="#FFB8B8" fill-rule="nonzero" points="137.082 686.425 148.602 686.425 154.083 641.988 137.08 641.989"></polygon>
            <path d="M134.613207,683.133121 L170.820627,683.133121 L170.820627,697.122351 L148.602437,697.122351 C144.892262,697.122351 141.334047,695.64849 138.710557,693.025001 C136.087068,690.401511 134.613207,686.843296 134.613207,683.133121 L134.613207,683.133121 Z" id="Path" fill="#2F2E41" fill-rule="nonzero" transform="translate(152.716917, 690.127736) rotate(179.997380) translate(-152.716917, -690.127736) "></path>
            <polygon id="Path" fill="#FFB8B8" fill-rule="nonzero" points="21.882 671.495 31.978 677.045 58.19 640.747 43.291 632.555"></polygon>
            <path d="M15.6957496,675.277378 L51.9031696,675.277378 L51.9031696,689.266608 L29.6849696,689.266608 C21.9589367,689.266608 15.6957496,683.003421 15.6957496,675.277378 L15.6957496,675.277378 L15.6957496,675.277378 Z" id="Path" fill="#2F2E41" fill-rule="nonzero" transform="translate(33.799460, 682.271993) rotate(-151.199040) translate(-33.799460, -682.271993) "></path>
            <path d="M136.54362,661.76083 C134.420031,661.76083 132.627256,660.18231 132.35419,658.07635 L117.94641,547.05197 C117.815786,546.044616 117.052529,545.235312 116.054544,545.045968 C115.05656,544.856624 114.049919,545.330132 113.55941,546.21964 L53.5137,655.15997 C52.4897358,656.998213 50.2751719,657.810956 48.30519,657.07149 L35.217,652.08483 C34.1535207,651.67975 33.2982236,650.863088 32.844453,649.819454 C32.3906825,648.775821 32.3767518,647.593334 32.80581,646.5393 L74.401,544.35858 C74.5063186,544.099039 74.577721,543.826998 74.61344,543.54919 C80.24729,499.94388 94.58166,477.7691 98.8406,472.01159 C99.471905,471.152808 99.6457518,470.040509 99.3066,469.03005 L98.72112,467.27362 C98.2453001,465.855223 98.55479,464.290964 99.53488,463.16062 C114.88144,445.68069 141.62988,455.21904 141.89834,455.31723 L142.03234,455.36678 L142.11634,455.48149 C172.10928,496.61458 161.01982,630.21384 158.49234,656.57782 C158.297533,658.623395 156.656731,660.230767 154.60758,660.38343 L136.87207,661.74894 C136.7618,661.75715 136.65236,661.76083 136.54362,661.76083 Z" id="Path" fill="#2F2E41" fill-rule="nonzero"></path>
            <path d="M189.10621,387.27751 C188.990862,387.784545 188.915673,388.299885 188.88134,388.81874 L148.51412,412.10644 L138.7023,406.45794 L128.2423,420.15155 L144.64043,431.83914 C147.361603,433.778627 151.036372,433.689099 153.65987,431.6194 L195.28542,398.78072 C199.131738,400.204495 203.457755,399.099694 206.150371,396.005973 C208.842987,392.912251 209.340335,388.475174 207.399479,384.86209 C205.458623,381.249007 201.48456,379.213857 197.418475,379.750737 C193.352389,380.287618 190.042748,383.284497 189.10619,387.27751 L189.10621,387.27751 Z" id="Path" fill="#FFB8B8" fill-rule="nonzero"></path>
            <path d="M147.1646,413.20939 L134.11802,430.11839 C133.366859,431.091899 132.229157,431.690236 131.001377,431.757485 C129.773598,431.824734 128.577353,431.354235 127.72436,430.46859 L112.95475,415.13151 C107.852201,411.148041 106.935263,403.786745 110.904677,398.673253 C114.874091,393.559762 122.232836,392.622572 127.35723,396.5779 L145.88155,406.93604 C146.954594,407.536488 147.713139,408.574263 147.959523,409.778943 C148.205908,410.983624 147.915729,412.235887 147.1646,413.20942 L147.1646,413.20939 Z" id="Path" fill="#00D3C1"></path>
            <path d="M96.59786,442.58657 L75.58062,438.79157 C74.3705632,438.573066 73.3155438,437.838677 72.6904828,436.779772 C72.0654219,435.720867 71.9322319,434.442331 72.32562,433.27733 L79.139,413.10441 C80.3250374,406.740309 86.4374871,402.536205 92.8047404,403.705201 C99.1719937,404.874197 103.392446,410.97537 102.2405,417.34573 L101.57575,438.55892 C101.536853,439.787924 100.964933,440.939133 100.009021,441.712564 C99.0531087,442.485996 97.8078854,442.805043 96.59783,442.58657 L96.59786,442.58657 Z" id="Path" fill="#FF6584" fill-rule="nonzero"></path>
            <path d="M103.03264,355.15888 C108.96471,359.21888 116.75364,363.39231 122.81235,359.06875 C126.704917,356.104477 128.17828,350.929433 126.43077,346.3594 C123.52967,338.06318 115.55895,334.41079 107.93694,331.61116 C98.02833,327.97164 87.23931,325.07624 77.01028,327.68269 C66.78125,330.28914 57.74111,340.19287 59.58765,350.58598 C61.07259,358.94391 68.95647,365.89837 67.83726,374.31308 C66.71086,382.78182 57.18687,387.23953 48.77869,388.75308 C40.37051,390.26663 30.96157,390.75296 24.91895,396.79242 C17.21048,404.49685 19.13542,418.26767 26.38877,426.40201 C33.64212,434.53635 44.58784,438.22358 55.19423,440.7302 C69.24705,444.05132 84.44623,445.7967 97.7929,440.28498 C111.13957,434.77326 121.52571,419.93635 117.6594,406.02366 C116.02628,400.14695 112.17914,395.18034 108.46108,390.34518 C104.74302,385.51002 100.97814,380.45386 99.55987,374.52164 C98.37798,369.57813 99.25275,363.83846 102.53104,360.13025 C103.754319,358.79866 103.979895,356.830368 103.08959,355.25655 L103.03264,355.15888 Z" id="Path" fill="#2F2E41" fill-rule="nonzero"></path>
            <path d="M191,697.68102 L1,697.68102 C0.44771525,697.68102 0,697.233305 0,696.68102 C0,696.128735 0.44771525,695.68102 1,695.68102 L191,695.68102 C191.552285,695.68102 192,696.128735 192,696.68102 C192,697.233305 191.552285,697.68102 191,697.68102 Z" id="Path" fill="#CCCCCC" fill-rule="nonzero"></path>
        </g>
    </g>
</svg>